STARTFONT 2.1
FONT -FontForge-F5.6-Regular-R-Normal--44-420-75-75-P-308-ISO10646-1
SIZE 42 75 75
FONTBOUNDINGBOX 49 47 -11 -8
COMMENT "Generated by fontforge, http://fontforge.sourceforge.net"
COMMENT "Copyright \(C\) 2018 by Sora Sagano."
STARTPROPERTIES 39
FOUNDRY "FontForge"
FAMILY_NAME "F5.6"
WEIGHT_NAME "Regular"
SLANT "R"
SETWIDTH_NAME "Normal"
ADD_STYLE_NAME ""
PIXEL_SIZE 44
POINT_SIZE 420
RESOLUTION_X 75
RESOLUTION_Y 75
SPACING "P"
AVERAGE_WIDTH 308
CHARSET_REGISTRY "ISO10646"
CHARSET_ENCODING "1"
FONTNAME_REGISTRY ""
CHARSET_COLLECTIONS "ISO10646-1"
FONT_NAME "F5.6-Regular"
FACE_NAME "F5.6 Regular"
COPYRIGHT "Copyright \(C\) 2018 by Sora Sagano."
FONT_VERSION "000.110"
FONT_ASCENT 38
FONT_DESCENT 6
UNDERLINE_POSITION -4
UNDERLINE_THICKNESS 3
X_HEIGHT 28
CAP_HEIGHT 36
RAW_ASCENT 870
RAW_DESCENT 130
NORM_SPACE 13
RELATIVE_WEIGHT 40
RELATIVE_SETWIDTH 50
SUPERSCRIPT_X 0
SUPERSCRIPT_Y 15
SUPERSCRIPT_SIZE 26
SUBSCRIPT_X 0
SUBSCRIPT_Y 3
SUBSCRIPT_SIZE 26
AVG_LOWERCASE_WIDTH 299
AVG_UPPERCASE_WIDTH 354
ENDPROPERTIES
CHARS 72
STARTCHAR space
ENCODING 32
SWIDTH 300 0
DWIDTH 13 0
BBX 1 1 0 0
BITMAP
00
ENDCHAR
STARTCHAR hyphen
ENCODING 45
SWIDTH 500 0
DWIDTH 22 0
BBX 16 5 3 12
BITMAP
FFFF
FFFF
FFFF
FFFF
FFFF
ENDCHAR
STARTCHAR period
ENCODING 46
SWIDTH 200 0
DWIDTH 9 0
BBX 5 5 2 -1
BITMAP
F8
F8
F8
F8
F8
ENDCHAR
STARTCHAR slash
ENCODING 47
SWIDTH 558 0
DWIDTH 25 0
BBX 17 40 4 -1
BITMAP
000F00
000F80
001F80
001F00
001F00
003F00
003E00
003E00
007E00
007C00
007C00
00FC00
00F800
00F800
01F800
01F000
01F000
03F000
03E000
03E000
07E000
07E000
07C000
07C000
0FC000
0F8000
0F8000
1F8000
1F0000
1F0000
3F0000
3E0000
3E0000
7E0000
7C0000
7C0000
FC0000
F80000
F80000
F80000
ENDCHAR
STARTCHAR zero
ENCODING 48
SWIDTH 840 0
DWIDTH 37 0
BBX 23 40 7 -1
BITMAP
3FFFF8
7FFFFC
FFFFFE
FFFFFE
FFFFFE
F8003E
F8003E
F8003E
F8003E
F8003E
F8007E
F800FE
F801FE
F803FE
F807FE
F80FFE
F81FFE
F81FBE
F83F3E
F87E3E
F8FC3E
F9F83E
FBF03E
FFF03E
FFE03E
FFC03E
FF803E
FF003E
FE003E
FC003E
F8003E
F8003E
F8003E
F8003E
F8003E
FFFFFE
FFFFFE
FFFFFE
FFFFFC
3FFFF8
ENDCHAR
STARTCHAR one
ENCODING 49
SWIDTH 578 0
DWIDTH 25 0
BBX 13 38 5 0
BITMAP
00F8
00F8
00F8
00F8
00F8
FFF8
FFF8
FFF8
FFF8
FFF8
00F8
00F8
00F8
00F8
00F8
00F8
00F8
00F8
00F8
00F8
00F8
00F8
00F8
00F8
00F8
00F8
00F8
00F8
00F8
00F8
00F8
00F8
00F8
00F8
00F8
00F8
00F8
00F8
ENDCHAR
STARTCHAR two
ENCODING 50
SWIDTH 768 0
DWIDTH 34 0
BBX 22 40 6 -1
BITMAP
1FFFE0
7FFFF8
7FFFF8
7FFFFC
FFFFFC
FC00FC
FC00FC
FC00FC
FC00FC
FC00FC
7800FC
0000FC
0000FC
0000F8
0001F8
0003F8
0007F0
001FF0
003FE0
007F80
00FF00
03FE00
07FC00
0FF000
1FE000
3FC000
7F8000
7E0000
FC0000
FC0000
F80000
F80000
F80000
F80000
F80000
FFFFFC
FFFFFC
FFFFFC
FFFFFC
FFFFFC
ENDCHAR
STARTCHAR three
ENCODING 51
SWIDTH 740 0
DWIDTH 33 0
BBX 23 40 4 -1
BITMAP
3FFFF8
7FFFFC
7FFFFC
7FFFFC
7FFFFC
0001F8
0003F8
0007F0
000FE0
000FC0
001F80
003F00
007F00
00FE00
01FC00
01F800
03F000
07FFF8
07FFFC
07FFFC
07FFFE
07FFFE
00003E
00003E
00003E
00003E
00003E
00003E
00003E
F8003E
F8003E
F8003E
F8003E
F8003E
F8003E
FFFFFE
FFFFFE
FFFFFC
7FFFFC
3FFFF8
ENDCHAR
STARTCHAR four
ENCODING 52
SWIDTH 763 0
DWIDTH 34 0
BBX 27 38 3 0
BITMAP
003F0000
003E0000
007E0000
007C0000
00FC0000
00FC0000
01F80000
01F80000
01F00000
03F07C00
03F07C00
07E07C00
07E07C00
0FC07C00
0FC07C00
0FC07C00
1F807C00
1F807C00
3F007C00
3F007C00
3E007C00
7E007C00
7E007C00
FFFFFFE0
FFFFFFE0
FFFFFFE0
7FFFFFE0
3FFFFFE0
00007C00
00007C00
00007C00
00007C00
00007C00
00007C00
00007C00
00007C00
00007C00
00007C00
ENDCHAR
STARTCHAR five
ENCODING 53
SWIDTH 778 0
DWIDTH 34 0
BBX 23 40 5 -1
BITMAP
0FFFF8
3FFFF8
3FFFF8
7FFFF8
7FFFF8
7E0000
7E0000
7E0000
7E0000
7E0000
7E0000
7E0000
7E0000
7E0000
7E0000
7E0000
7E0000
7FFFF8
7FFFFC
3FFFFE
3FFFFE
1FFFFE
00003E
00003E
00003E
00003E
00003E
00003E
00003E
F8003E
F8003E
F8003E
F8003E
F8003E
F8003E
FFFFFE
FFFFFE
FFFFFE
7FFFFC
3FFFF8
ENDCHAR
STARTCHAR six
ENCODING 54
SWIDTH 810 0
DWIDTH 36 0
BBX 22 40 7 -1
BITMAP
3FFFE0
7FFFF8
FFFFF8
FFFFF8
FFFFFC
F800FC
F800FC
F800FC
F800FC
F800FC
F80078
F80000
F80000
F80000
F80000
F80000
F80000
FFFFF0
FFFFFC
FFFFFC
FFFFFC
FFFFFC
F8007C
F8007C
F8007C
F8007C
F8007C
F8007C
F8007C
F8007C
F8007C
F8007C
F8007C
F8007C
F8007C
FFFFFC
FFFFFC
FFFFFC
FFFFFC
3FFFF0
ENDCHAR
STARTCHAR seven
ENCODING 55
SWIDTH 716 0
DWIDTH 32 0
BBX 24 38 4 1
BITMAP
FFFFFC
FFFFFE
FFFFFF
FFFFFF
FFFFFF
F8003F
F8007E
F8007E
F8007C
F800FC
7000FC
0001F8
0001F8
0001F0
0003F0
0003F0
0007E0
0007E0
0007C0
000FC0
000FC0
000F80
001F80
001F00
003F00
003F00
003E00
007E00
007C00
00FC00
00FC00
00F800
01F800
01F000
03F000
03F000
03E000
07E000
ENDCHAR
STARTCHAR eight
ENCODING 56
SWIDTH 823 0
DWIDTH 36 0
BBX 24 40 6 -1
BITMAP
1FFFF8
3FFFFE
7FFFFE
7FFFFE
7FFFFF
7C003F
7C003F
7C003F
7C003F
7C003F
7C003F
7C003F
7C003F
7C003E
7E007E
7F81FE
3FE7FC
1FFFF8
07FFF0
03FFC0
0FFFF0
3FEFFC
7FC3FE
7F00FE
7E007F
FC003F
FC001F
F8001F
F8001F
F8001F
F8001F
F8001F
F8001F
F8001F
F8001F
FFFFFF
FFFFFF
7FFFFF
7FFFFE
3FFFFC
ENDCHAR
STARTCHAR nine
ENCODING 57
SWIDTH 810 0
DWIDTH 36 0
BBX 23 40 6 -1
BITMAP
3FFFF8
7FFFFC
7FFFFE
FFFFFE
FFFFFE
F8003E
F8003E
F8003E
F8003E
F8003E
F8003E
F8003E
F8003E
F8003E
F8003E
F8003E
F8003E
F8003E
FFFFFE
FFFFFE
7FFFFE
7FFFFE
3FFFFE
00003E
00003E
00003E
00003E
00003E
00003E
7C003E
7C003E
7C003E
7C003E
7C003E
7C003E
7FFFFE
7FFFFE
7FFFFE
3FFFFC
1FFFF8
ENDCHAR
STARTCHAR colon
ENCODING 58
SWIDTH 400 0
DWIDTH 18 0
BBX 5 27 6 5
BITMAP
F8
F8
F8
F8
F8
00
00
00
00
00
00
00
00
00
00
00
00
00
00
00
00
00
F8
F8
F8
F8
F8
ENDCHAR
STARTCHAR A
ENCODING 65
SWIDTH 847 0
DWIDTH 37 0
BBX 29 38 4 0
BITMAP
001FC000
003FE000
003FE000
003FF000
007FF000
007DF000
007DF000
007DF800
00FCF800
00F8F800
00F8FC00
01F8FC00
01F87C00
01F07C00
01F07E00
03F03E00
03E03E00
03E03F00
07E03F00
07E01F00
07C01F00
07FFFF80
0FFFFF80
0FFFFF80
0FFFFFC0
0FFFFFC0
1F8007C0
1F0007C0
1F0007E0
3F0007E0
3F0003E0
3E0003F0
3E0003F0
7E0003F0
7C0001F0
7C0001F8
FC0001F8
FC0000F8
ENDCHAR
STARTCHAR B
ENCODING 66
SWIDTH 830 0
DWIDTH 37 0
BBX 24 40 7 -1
BITMAP
FFFF00
FFFFC0
FFFFC0
FFFFC0
FFFFE0
F807E0
F807E0
F807E0
F807E0
F807E0
F807E0
F807E0
F807E0
F807E0
F807E0
F807E0
F807E0
FFFFFC
FFFFFE
FFFFFE
FFFFFF
FFFFFF
F8001F
F8001F
F8001F
F8001F
F8001F
F8001F
F8001F
F8001F
F8001F
F8001F
F8001F
F8001F
F8001F
FFFFFF
FFFFFF
FFFFFE
FFFFFE
FFFFFC
ENDCHAR
STARTCHAR C
ENCODING 67
SWIDTH 807 0
DWIDTH 36 0
BBX 23 40 7 -1
BITMAP
3FFFF8
7FFFFC
FFFFFE
FFFFFE
FFFFFE
F8003E
F8003E
F8003E
F8003E
F8003E
F8003E
F80000
F80000
F80000
F80000
F80000
F80000
F80000
F80000
F80000
F80000
F80000
F80000
F80000
F80000
F80000
F80000
F80000
F80000
F8003E
F8003E
F8003E
F8003E
F8003E
F8003E
FFFFFE
FFFFFE
FFFFFE
FFFFFC
3FFFF8
ENDCHAR
STARTCHAR D
ENCODING 68
SWIDTH 839 0
DWIDTH 37 0
BBX 25 40 7 -1
BITMAP
FFFE0000
FFFF0000
FFFF8000
FFFFC000
FFFFE000
F80FE000
F807F000
F803F000
F801F800
F801F800
F800FC00
F800FC00
F8007E00
F8007E00
F8003F00
F8003F00
F8001F00
F8001F80
F8001F80
F8001F80
F8000F80
F8000F80
F8000F80
F8000F80
F8000F80
F8000F80
F8000F80
F8000F80
F8000F80
F8000F80
F8000F80
F8000F80
F8000F80
F8000F80
F8000F80
FFFFFF80
FFFFFF80
FFFFFF00
FFFFFF00
FFFFFE00
ENDCHAR
STARTCHAR E
ENCODING 69
SWIDTH 738 0
DWIDTH 32 0
BBX 21 40 7 -1
BITMAP
FFFFF0
FFFFF0
FFFFF0
FFFFF0
FFFFF0
F80000
F80000
F80000
F80000
F80000
F80000
F80000
F80000
F80000
F80000
F80000
F80000
FFFFC0
FFFFE0
FFFFE0
FFFFE0
FFFFC0
F80000
F80000
F80000
F80000
F80000
F80000
F80000
F80000
F80000
F80000
F80000
F80000
F80000
FFFFF8
FFFFF8
FFFFF8
FFFFF8
FFFFF8
ENDCHAR
STARTCHAR F
ENCODING 70
SWIDTH 724 0
DWIDTH 32 0
BBX 21 38 7 1
BITMAP
FFFFF8
FFFFF8
FFFFF8
FFFFF8
FFFFF8
F80000
F80000
F80000
F80000
F80000
F80000
F80000
F80000
F80000
F80000
F80000
FFFFF0
FFFFF0
FFFFF0
FFFFF0
FFFFF0
F80000
F80000
F80000
F80000
F80000
F80000
F80000
F80000
F80000
F80000
F80000
F80000
F80000
F80000
F80000
F80000
F80000
ENDCHAR
STARTCHAR G
ENCODING 71
SWIDTH 852 0
DWIDTH 37 0
BBX 24 40 7 -1
BITMAP
3FFFF8
7FFFFE
FFFFFE
FFFFFF
FFFFFF
F8003F
F8003F
F8003F
F8003F
F8003F
F8001E
F80000
F80000
F80000
F80000
F80000
F80000
F80FFF
F80FFF
F80FFF
F80FFF
F80FFF
F8001F
F8001F
F8001F
F8001F
F8001F
F8001F
F8001F
F8001F
F8001F
F8001F
F8001F
F8001F
F8001F
FFFFFF
FFFFFF
FFFFFF
FFFFFE
3FFFFC
ENDCHAR
STARTCHAR H
ENCODING 72
SWIDTH 900 0
DWIDTH 40 0
BBX 26 38 7 0
BITMAP
F80007C0
F80007C0
F80007C0
F80007C0
F80007C0
F80007C0
F80007C0
F80007C0
F80007C0
F80007C0
F80007C0
F80007C0
F80007C0
F80007C0
F80007C0
F80007C0
FFFFFFC0
FFFFFFC0
FFFFFFC0
FFFFFFC0
FFFFFFC0
F80007C0
F80007C0
F80007C0
F80007C0
F80007C0
F80007C0
F80007C0
F80007C0
F80007C0
F80007C0
F80007C0
F80007C0
F80007C0
F80007C0
F80007C0
F80007C0
F80007C0
ENDCHAR
STARTCHAR I
ENCODING 73
SWIDTH 590 0
DWIDTH 26 0
BBX 16 40 5 -1
BITMAP
FFFF
FFFF
FFFF
FFFF
FFFF
07E0
07E0
07E0
07E0
07E0
07E0
07E0
07E0
07E0
07E0
07E0
07E0
07E0
07E0
07E0
07E0
07E0
07E0
07E0
07E0
07E0
07E0
07E0
07E0
07E0
07E0
07E0
07E0
07E0
07E0
FFFF
FFFF
FFFF
FFFF
FFFF
ENDCHAR
STARTCHAR J
ENCODING 74
SWIDTH 720 0
DWIDTH 32 0
BBX 21 38 4 -1
BITMAP
0000F8
0000F8
0000F8
0000F8
0000F8
0000F8
0000F8
0000F8
0000F8
0000F8
0000F8
0000F8
0000F8
0000F8
0000F8
0000F8
0000F8
0000F8
0000F8
0000F8
0000F8
0000F8
0000F8
0000F8
0000F8
0000F8
0000F8
0000F8
F800F8
F800F8
F800F8
F800F8
F800F8
FFFFF8
FFFFF8
FFFFF8
FFFFF0
3FFFE0
ENDCHAR
STARTCHAR K
ENCODING 75
SWIDTH 802 0
DWIDTH 35 0
BBX 25 38 7 0
BITMAP
F8003F00
F8003F00
F8007E00
F8007E00
F800FC00
F800FC00
F801F800
F801F800
F801F000
F803F000
F803E000
F807E000
F807C000
F80FC000
F80F8000
F81F8000
FFFF0000
FFFF0000
FFFF0000
FFFF0000
FFFF8000
F81F8000
F80FC000
F80FC000
F807E000
F807E000
F803F000
F803F000
F801F800
F801F800
F800FC00
F800FC00
F8007E00
F8007E00
F8003F00
F8003F00
F8001F80
F8001F80
ENDCHAR
STARTCHAR L
ENCODING 76
SWIDTH 699 0
DWIDTH 31 0
BBX 21 38 7 -1
BITMAP
F80000
F80000
F80000
F80000
F80000
F80000
F80000
F80000
F80000
F80000
F80000
F80000
F80000
F80000
F80000
F80000
F80000
F80000
F80000
F80000
F80000
F80000
F80000
F80000
F80000
F80000
F80000
F80000
F80000
F80000
F80000
F80000
F80000
FFFFF8
FFFFF8
FFFFF8
FFFFF8
FFFFF8
ENDCHAR
STARTCHAR M
ENCODING 77
SWIDTH 1000 0
DWIDTH 44 0
BBX 30 39 7 -1
BITMAP
38000070
FE0001FC
FF0003FC
FF8007FC
FFC00FFC
FFE01FFC
FFE01FFC
FBF03F7C
F9F87E7C
F8FCFC7C
F8FFFC7C
F87FF87C
F83FF07C
F81FE07C
F80FC07C
F807807C
F800007C
F800007C
F800007C
F800007C
F800007C
F800007C
F800007C
F800007C
F800007C
F800007C
F800007C
F800007C
F800007C
F800007C
F800007C
F800007C
F800007C
F800007C
F800007C
F800007C
F800007C
F800007C
F800007C
ENDCHAR
STARTCHAR N
ENCODING 78
SWIDTH 880 0
DWIDTH 39 0
BBX 25 39 7 0
BITMAP
F8000F80
FC000F80
FE000F80
FF000F80
FF800F80
FFC00F80
FFE00F80
FFF00F80
FBF80F80
F9FC0F80
F8FE0F80
F87F0F80
F83F8F80
F81FCF80
F80FEF80
F807FF80
F803FF80
F801FF80
F800FF80
F8007F80
F8003F80
F8001F80
F8000F80
F8000F80
F8000F80
F8000F80
F8000F80
F8000F80
F8000F80
F8000F80
F8000F80
F8000F80
F8000F80
F8000F80
F8000F80
F8000F80
F8000F80
F8000F80
70000000
ENDCHAR
STARTCHAR O
ENCODING 79
SWIDTH 880 0
DWIDTH 39 0
BBX 25 40 7 -1
BITMAP
3FFFFE00
7FFFFF00
FFFFFF80
FFFFFF80
FFFFFF80
F8000F80
F8000F80
F8000F80
F8000F80
F8000F80
F8000F80
F8000F80
F8000F80
F8000F80
F8000F80
F8000F80
F8000F80
F8000F80
F8000F80
F8000F80
F8000F80
F8000F80
F8000F80
F8000F80
F8000F80
F8000F80
F8000F80
F8000F80
F8000F80
F8000F80
F8000F80
F8000F80
F8000F80
F8000F80
F8000F80
FFFFFF80
FFFFFF80
FFFFFF80
FFFFFF00
3FFFFE00
ENDCHAR
STARTCHAR P
ENCODING 80
SWIDTH 779 0
DWIDTH 34 0
BBX 22 38 7 1
BITMAP
FFFFF0
FFFFFC
FFFFFC
FFFFFC
FFFFFC
F8007C
F8007C
F8007C
F8007C
F8007C
F8007C
F8007C
F8007C
F8007C
F8007C
F8007C
FFFFFC
FFFFFC
FFFFFC
FFFFFC
FFFFF8
F80000
F80000
F80000
F80000
F80000
F80000
F80000
F80000
F80000
F80000
F80000
F80000
F80000
F80000
F80000
F80000
F80000
ENDCHAR
STARTCHAR Q
ENCODING 81
SWIDTH 880 0
DWIDTH 39 0
BBX 25 46 7 -7
BITMAP
3FFFFE00
7FFFFF00
FFFFFF80
FFFFFF80
FFFFFF80
F8000F80
F8000F80
F8000F80
F8000F80
F8000F80
F8000F80
F8000F80
F8000F80
F8000F80
F8000F80
F8000F80
F8000F80
F8000F80
F8000F80
F8000F80
F8000F80
F8000F80
F8000F80
F8000F80
F8000F80
F8000F80
F8000F80
F8000F80
F8000F80
F83E0F80
F83E0F80
F83E0F80
F83E0F80
F83E0F80
F83E0F80
FFFFFF80
FFFFFF80
FFFFFF80
FFFFFF00
3FFFFE00
003E0000
003E0000
003E0000
003E0000
003E0000
003C0000
ENDCHAR
STARTCHAR R
ENCODING 82
SWIDTH 800 0
DWIDTH 35 0
BBX 24 38 7 1
BITMAP
FFFFE0
FFFFF0
FFFFF8
FFFFF8
FFFFF8
F800F8
F800F8
F800F8
F800F8
F800F8
F800F8
F800F8
F800F8
F800F8
F800F8
F800F8
FFFFF8
FFFFF8
FFFFF8
FFFFF0
FFFFE0
F83F00
F83F00
F81F80
F81F80
F80FC0
F80FC0
F807E0
F807E0
F803F0
F803F0
F801F8
F801F8
F800FC
F800FE
F8007E
F8003F
F8003F
ENDCHAR
STARTCHAR S
ENCODING 83
SWIDTH 743 0
DWIDTH 33 0
BBX 22 40 5 -1
BITMAP
1FFFE0
3FFFF0
3FFFF8
7FFFF8
7FFFF8
7C00F8
7C00F8
7C00F8
7C00F8
7C00F8
7C00F8
7E0000
7E0000
3F0000
3F8000
1FE000
1FF000
07F800
03FC00
01FE00
00FF00
007F80
003FE0
001FF0
0007F8
0003F8
0001FC
0000FC
00007C
78007C
FC007C
FC007C
FC007C
FC007C
FC007C
FFFFFC
FFFFFC
7FFFFC
7FFFF8
1FFFF0
ENDCHAR
STARTCHAR T
ENCODING 84
SWIDTH 720 0
DWIDTH 32 0
BBX 27 38 2 1
BITMAP
7FFFFFE0
FFFFFFE0
FFFFFFE0
FFFFFFE0
7FFFFFE0
001F0000
001F0000
001F0000
001F0000
001F0000
001F0000
001F0000
001F0000
001F0000
001F0000
001F0000
001F0000
001F0000
001F0000
001F0000
001F0000
001F0000
001F0000
001F0000
001F0000
001F0000
001F0000
001F0000
001F0000
001F0000
001F0000
001F0000
001F0000
001F0000
001F0000
001F0000
001F0000
001F0000
ENDCHAR
STARTCHAR U
ENCODING 85
SWIDTH 870 0
DWIDTH 38 0
BBX 25 38 7 -1
BITMAP
F8001F80
F8001F80
F8001F80
F8001F80
F8001F80
F8001F80
F8001F80
F8001F80
F8001F80
F8001F80
F8001F80
F8001F80
F8001F80
F8001F80
F8001F80
F8001F80
F8001F80
F8001F80
F8001F80
F8001F80
F8001F80
F8001F80
F8001F80
F8001F80
F8001F80
F8001F80
F8001F80
F8001F80
F8001F80
F8001F80
F8001F80
F8001F80
F8001F80
FFFFFF80
FFFFFF80
FFFFFF00
FFFFFF00
3FFFFE00
ENDCHAR
STARTCHAR V
ENCODING 86
SWIDTH 815 0
DWIDTH 36 0
BBX 28 39 4 0
BITMAP
F80001F0
F80001F0
FC0001F0
FC0003F0
FC0003F0
7C0003E0
7E0007E0
7E0007E0
3E0007C0
3E0007C0
3F000FC0
3F000FC0
1F000F80
1F800F80
1F801F80
0F801F00
0F801F00
0FC03F00
0FC03F00
07C03E00
07C03E00
07E07E00
03E07C00
03E07C00
03F07C00
03F0FC00
01F0F800
01F0F800
01F8F800
00F9F800
00F9F000
00F9F000
00FFF000
007FE000
007FE000
007FE000
003FC000
003FC000
000F0000
ENDCHAR
STARTCHAR W
ENCODING 87
SWIDTH 1000 0
DWIDTH 44 0
BBX 30 39 7 0
BITMAP
F800007C
F800007C
F800007C
F800007C
F800007C
F800007C
F800007C
F800007C
F800007C
F800007C
F800007C
F800007C
F800007C
F800007C
F800007C
F800007C
F800007C
F800007C
F800007C
F800007C
F800007C
F800007C
F800007C
F807807C
F80FC07C
F81FE07C
F83FF07C
F87FF87C
F8FFFC7C
F8FCFC7C
F9F87E7C
FBF03F7C
FFE01FFC
FFE01FFC
FFC00FFC
FF8007FC
FF0003FC
FE0001FC
380000F0
ENDCHAR
STARTCHAR X
ENCODING 88
SWIDTH 779 0
DWIDTH 34 0
BBX 26 38 4 -1
BITMAP
7C000F80
7E001F80
3E001F00
3F003F00
1F003E00
1F807E00
0F807C00
0FC0FC00
07C0F800
07E1F800
03E1F000
03F3F000
01F3E000
01FFE000
00FFC000
00FFC000
007F8000
007F8000
003F0000
007F8000
007F8000
00FFC000
00FFC000
01FFE000
01F3E000
03F3F000
03E1F800
07E1F800
0FC0FC00
0FC0FC00
1F807E00
1F807E00
3F003F00
3F003F00
7E001F80
7E001F80
FC000FC0
F80007C0
ENDCHAR
STARTCHAR Y
ENCODING 89
SWIDTH 730 0
DWIDTH 32 0
BBX 26 38 3 -1
BITMAP
FC0007C0
FC000FC0
7E000F80
7E001F80
3E001F00
3F003F00
1F003E00
1F807E00
0F807C00
0FC07C00
07C0F800
07E0F800
03E1F800
03F1F000
01F3F000
01F3E000
01FFE000
00FFC000
00FFC000
007F8000
007F8000
003F0000
003F0000
003F0000
003F0000
003F0000
003F0000
003F0000
003F0000
003F0000
003F0000
003F0000
003F0000
003F0000
003F0000
003F0000
003F0000
001E0000
ENDCHAR
STARTCHAR Z
ENCODING 90
SWIDTH 711 0
DWIDTH 31 0
BBX 24 40 4 -1
BITMAP
7FFFF0
7FFFFC
7FFFFC
7FFFFC
7FFFFC
0000FC
0001F8
0001F8
0003F0
0003F0
0007E0
0007E0
000FC0
001FC0
001F80
003F00
003F00
007E00
007E00
00FC00
00FC00
01F800
03F800
03F000
07E000
07E000
0FC000
0FC000
1F8000
1F8000
3F0000
3F0000
7E0000
FC0000
FC0000
FFFFFF
FFFFFF
FFFFFF
FFFFFF
7FFFFF
ENDCHAR
STARTCHAR underscore
ENCODING 95
SWIDTH 640 0
DWIDTH 28 0
BBX 24 5 2 -8
BITMAP
FFFFFF
FFFFFF
FFFFFF
FFFFFF
FFFFFF
ENDCHAR
STARTCHAR a
ENCODING 97
SWIDTH 724 0
DWIDTH 32 0
BBX 21 32 5 -1
BITMAP
3FFFE0
3FFFF0
3FFFF8
3FFFF8
3FFFF8
0000F8
0000F8
0000F8
0000F8
0000F8
0000F8
0000F8
0000F8
3FFFF8
7FFFF8
FFFFF8
FFFFF8
FFFFF8
F800F8
F800F8
F800F8
F800F8
F800F8
F800F8
F800F8
F800F8
F800F8
FFFFF8
FFFFF8
FFFFF8
7FFFF8
3FFFF8
ENDCHAR
STARTCHAR b
ENCODING 98
SWIDTH 761 0
DWIDTH 33 0
BBX 22 40 6 -1
BITMAP
F80000
F80000
F80000
F80000
F80000
F80000
F80000
F80000
FFFFF0
FFFFF8
FFFFFC
FFFFFC
FFFFFC
F8007C
F8007C
F8007C
F8007C
F8007C
F8007C
F8007C
F8007C
F8007C
F8007C
F8007C
F8007C
F8007C
F8007C
F8007C
F8007C
F8007C
F8007C
F8007C
F8007C
F8007C
F8007C
FFFFFC
FFFFFC
FFFFFC
FFFFF8
FFFFF0
ENDCHAR
STARTCHAR c
ENCODING 99
SWIDTH 639 0
DWIDTH 28 0
BBX 20 32 5 -1
BITMAP
1FFFE0
7FFFF0
7FFFF0
FFFFF0
FFFFE0
F80000
F80000
F80000
F80000
F80000
F80000
F80000
F80000
F80000
F80000
F80000
F80000
F80000
F80000
F80000
F80000
F80000
F80000
F80000
F80000
F80000
F80000
FFFFE0
FFFFF0
7FFFF0
7FFFF0
1FFFE0
ENDCHAR
STARTCHAR d
ENCODING 100
SWIDTH 761 0
DWIDTH 33 0
BBX 22 40 5 -1
BITMAP
00007C
00007C
00007C
00007C
00007C
00007C
00007C
00007C
1FFFFC
7FFFFC
7FFFFC
FFFFFC
FFFFFC
F8007C
F8007C
F8007C
F8007C
F8007C
F8007C
F8007C
F8007C
F8007C
F8007C
F8007C
F8007C
F8007C
F8007C
F8007C
F8007C
F8007C
F8007C
F8007C
F8007C
F8007C
F8007C
FFFFFC
FFFFFC
7FFFFC
7FFFFC
1FFFFC
ENDCHAR
STARTCHAR e
ENCODING 101
SWIDTH 717 0
DWIDTH 32 0
BBX 21 32 5 -1
BITMAP
1FFFE0
7FFFF0
7FFFF8
FFFFF8
FFFFF8
F800F8
F800F8
F800F8
F800F8
F800F8
F800F8
F800F8
F800F8
F800F8
FFFFF8
FFFFF8
FFFFF8
FFFFF8
FFFFF8
F80000
F80000
F80000
F80000
F80000
F80000
F80000
F80000
FFFFF8
FFFFF8
7FFFF8
7FFFF8
1FFFF8
ENDCHAR
STARTCHAR f
ENCODING 102
SWIDTH 515 0
DWIDTH 23 0
BBX 17 38 3 1
BITMAP
01FF00
07FF80
07FF80
07FF80
07FF00
07C000
07C000
07C000
FFFF00
FFFF80
FFFF80
FFFF80
FFFF00
07C000
07C000
07C000
07C000
07C000
07C000
07C000
07C000
07C000
07C000
07C000
07C000
07C000
07C000
07C000
07C000
07C000
07C000
07C000
07C000
07C000
07C000
07C000
07C000
078000
ENDCHAR
STARTCHAR g
ENCODING 103
SWIDTH 764 0
DWIDTH 34 0
BBX 26 38 3 -7
BITMAP
00FFFFC0
03FFFFC0
03FFFFC0
07FFFFC0
07FFFFC0
07C03E00
07C03E00
07C03E00
07C03E00
07C03E00
07C03E00
07C03E00
3FFFFE00
7FFFFE00
7FFFFC00
FFFFF800
F8000000
F8000000
F8000000
F8000000
F8000000
FFFFFF00
FFFFFF80
7FFFFF80
3FFFFFC0
07FFFFC0
07C007C0
07C007C0
07C007C0
07C007C0
07C007C0
07C007C0
07C007C0
07FFFFC0
07FFFFC0
03FFFF80
03FFFF80
00FFFF00
ENDCHAR
STARTCHAR h
ENCODING 104
SWIDTH 780 0
DWIDTH 34 0
BBX 22 38 6 1
BITMAP
F80000
F80000
F80000
F80000
F80000
F80000
F80000
F80000
FFFFF0
FFFFF8
FFFFFC
FFFFFC
FFFFFC
F8007C
F8007C
F8007C
F8007C
F8007C
F8007C
F8007C
F8007C
F8007C
F8007C
F8007C
F8007C
F8007C
F8007C
F8007C
F8007C
F8007C
F8007C
F8007C
F8007C
F8007C
F8007C
F8007C
F8007C
F8003C
ENDCHAR
STARTCHAR i
ENCODING 105
SWIDTH 396 0
DWIDTH 17 0
BBX 5 38 6 1
BITMAP
F8
F8
F8
F8
F8
00
00
00
70
F8
F8
F8
F8
F8
F8
F8
F8
F8
F8
F8
F8
F8
F8
F8
F8
F8
F8
F8
F8
F8
F8
F8
F8
F8
F8
F8
F8
F8
ENDCHAR
STARTCHAR j
ENCODING 106
SWIDTH 419 0
DWIDTH 18 0
BBX 11 43 1 -4
BITMAP
03E0
03E0
03E0
03E0
03E0
0000
0000
0000
01C0
03E0
03E0
03E0
03E0
03E0
03E0
03E0
03E0
03E0
03E0
03E0
03E0
03E0
03E0
03E0
03E0
03E0
03E0
03E0
03E0
03E0
03E0
03E0
03E0
03E0
03E0
03E0
03E0
03E0
FFE0
FFE0
FFE0
FFC0
FF80
ENDCHAR
STARTCHAR k
ENCODING 107
SWIDTH 724 0
DWIDTH 32 0
BBX 23 38 6 0
BITMAP
F80000
F80000
F80000
F80000
F80000
F80000
F80000
F80000
F800F8
F801F8
F801F8
F803F0
F803F0
F807E0
F807C0
F80FC0
F80F80
F81F80
F81F00
F83F00
FFFE00
FFFE00
FFFC00
FFFE00
FFFF00
F83F00
F81F80
F81F80
F80FC0
F807C0
F807E0
F803F0
F803F0
F801F8
F800F8
F800FC
F8007E
F8007E
ENDCHAR
STARTCHAR l
ENCODING 108
SWIDTH 460 0
DWIDTH 20 0
BBX 11 38 6 -1
BITMAP
F800
F800
F800
F800
F800
F800
F800
F800
F800
F800
F800
F800
F800
F800
F800
F800
F800
F800
F800
F800
F800
F800
F800
F800
F800
F800
F800
F800
F800
F800
F800
F800
F800
FFE0
FFE0
7FE0
7FE0
3FE0
ENDCHAR
STARTCHAR m
ENCODING 109
SWIDTH 990 0
DWIDTH 44 0
BBX 32 30 6 1
BITMAP
FFFFFFF8
FFFFFFFE
FFFFFFFE
FFFFFFFF
FFFFFFFF
F807C01F
F807C01F
F807C01F
F807C01F
F807C01F
F807C01F
F807C01F
F807C01F
F807C01F
F807C01F
F807C01F
F807C01F
F807C01F
F807C01F
F807C01F
F807C01F
F807C01F
F807C01F
F807C01F
F807C01F
F807C01F
F807C01F
F807C01F
F807C01F
F803C01E
ENDCHAR
STARTCHAR n
ENCODING 110
SWIDTH 780 0
DWIDTH 34 0
BBX 22 30 6 1
BITMAP
FFFFF0
FFFFF8
FFFFFC
FFFFFC
FFFFFC
F8007C
F8007C
F8007C
F8007C
F8007C
F8007C
F8007C
F8007C
F8007C
F8007C
F8007C
F8007C
F8007C
F8007C
F8007C
F8007C
F8007C
F8007C
F8007C
F8007C
F8007C
F8007C
F8007C
F8007C
F8003C
ENDCHAR
STARTCHAR o
ENCODING 111
SWIDTH 745 0
DWIDTH 33 0
BBX 23 32 5 -1
BITMAP
1FFFF0
7FFFFC
7FFFFC
FFFFFC
FFFFFC
F8007E
F8007E
F8007E
F8007E
F8007E
F8007E
F8007E
F8007E
F8007E
F8007E
F8007E
F8007E
F8007E
F8007E
F8007E
F8007E
F8007E
F8007E
F8007E
F8007E
F8007E
F8007E
FFFFFC
FFFFFC
7FFFFC
7FFFFC
1FFFF0
ENDCHAR
STARTCHAR p
ENCODING 112
SWIDTH 761 0
DWIDTH 33 0
BBX 22 38 6 -7
BITMAP
FFFFF0
FFFFF8
FFFFFC
FFFFFC
FFFFFC
F8007C
F8007C
F8007C
F8007C
F8007C
F8007C
F8007C
F8007C
F8007C
F8007C
F8007C
F8007C
F8007C
F8007C
F8007C
F8007C
F8007C
F8007C
F8007C
F8007C
F8007C
F8007C
FFFFFC
FFFFFC
FFFFFC
FFFFF8
FFFFF0
F80000
F80000
F80000
F80000
F80000
780000
ENDCHAR
STARTCHAR q
ENCODING 113
SWIDTH 761 0
DWIDTH 33 0
BBX 22 38 5 -7
BITMAP
1FFFFC
7FFFFC
7FFFFC
FFFFFC
FFFFFC
F8007C
F8007C
F8007C
F8007C
F8007C
F8007C
F8007C
F8007C
F8007C
F8007C
F8007C
F8007C
F8007C
F8007C
F8007C
F8007C
F8007C
F8007C
F8007C
F8007C
F8007C
F8007C
FFFFFC
FFFFFC
7FFFFC
7FFFFC
1FFFFC
00007C
00007C
00007C
00007C
00007C
00003C
ENDCHAR
STARTCHAR r
ENCODING 114
SWIDTH 527 0
DWIDTH 23 0
BBX 14 30 6 1
BITMAP
3FFC
7FFC
7FFC
FFFC
FFFC
F800
F800
F800
F800
F800
F800
F800
F800
F800
F800
F800
F800
F800
F800
F800
F800
F800
F800
F800
F800
F800
F800
F800
F800
F800
ENDCHAR
STARTCHAR s
ENCODING 115
SWIDTH 688 0
DWIDTH 30 0
BBX 20 32 5 -1
BITMAP
1FFFE0
3FFFE0
7FFFE0
7FFFE0
7FFFE0
7C0000
7C0000
7C0000
7C0000
7C0000
7C0000
7C0000
7C0000
7FFFC0
7FFFE0
7FFFE0
3FFFF0
1FFFF0
0001F0
0001F0
0001F0
0001F0
0001F0
0001F0
0001F0
0001F0
0001F0
7FFFF0
FFFFF0
FFFFE0
FFFFE0
7FFFC0
ENDCHAR
STARTCHAR t
ENCODING 116
SWIDTH 608 0
DWIDTH 27 0
BBX 19 40 4 -1
BITMAP
07C000
07C000
07C000
07C000
07C000
07C000
07C000
07C000
FFFFE0
FFFFE0
FFFFE0
FFFFE0
FFFFE0
07C000
07C000
07C000
07C000
07C000
07C000
07C000
07C000
07C000
07C000
07C000
07C000
07C000
07C000
07C000
07C000
07C000
07C000
07C000
07C000
07C000
07C000
07FFE0
07FFE0
07FFE0
03FFE0
01FFE0
ENDCHAR
STARTCHAR u
ENCODING 117
SWIDTH 786 0
DWIDTH 35 0
BBX 22 30 6 -1
BITMAP
F8003C
F8007C
F8007C
F8007C
F8007C
F8007C
F8007C
F8007C
F8007C
F8007C
F8007C
F8007C
F8007C
F8007C
F8007C
F8007C
F8007C
F8007C
F8007C
F8007C
F8007C
F8007C
F8007C
F8007C
F8007C
FFFFFC
FFFFFC
7FFFFC
7FFFFC
3FFFF0
ENDCHAR
STARTCHAR v
ENCODING 118
SWIDTH 721 0
DWIDTH 32 0
BBX 26 30 3 1
BITMAP
F8000F80
FC000FC0
FC000F80
7C001F80
7E001F80
7E001F00
3E003F00
3E003F00
3F003E00
1F003E00
1F007E00
1F807C00
0F807C00
0F80FC00
0FC0F800
0FC0F800
07C1F800
07C1F000
07E1F000
03E3F000
03E3E000
03F3E000
01F3E000
01F7C000
01F7C000
01FFC000
00FFC000
00FF8000
007F8000
007F0000
ENDCHAR
STARTCHAR w
ENCODING 119
SWIDTH 880 0
DWIDTH 39 0
BBX 27 30 6 1
BITMAP
F80003C0
F80007E0
F80007E0
F80007E0
F80007E0
F80007E0
F80007E0
F80007E0
F80007E0
F80007E0
F80007E0
F80007E0
F80007E0
F80007E0
F80007E0
F80007E0
F80007E0
F81F07E0
F83F87E0
F87FC7E0
F8FFE7E0
F9FFF7E0
FBFBFFE0
FFF1FFE0
FFE0FFE0
FFC07FE0
FF803FE0
FF001FE0
FE000FC0
7C0007C0
ENDCHAR
STARTCHAR x
ENCODING 120
SWIDTH 670 0
DWIDTH 29 0
BBX 23 30 3 -1
BITMAP
7C007C
7E00FC
3E00F8
3F01F8
1F01F0
1F83F0
0F83E0
0FC7E0
07E7C0
03EFC0
03FF80
01FF00
01FF00
00FE00
007E00
00FE00
01FF00
01FF80
03FF80
03EFC0
07C7C0
07C7E0
0F83F0
1F81F0
1F01F8
3F00F8
3E00FC
7E007E
FC003E
F8003E
ENDCHAR
STARTCHAR y
ENCODING 121
SWIDTH 721 0
DWIDTH 32 0
BBX 26 36 3 -5
BITMAP
F8000FC0
FC000FC0
7C000F80
7C001F80
7E001F00
3E001F00
3E003F00
3F003E00
1F003E00
1F007E00
1F807C00
0F807C00
0FC0FC00
0FC0F800
07C1F800
07E1F000
03E1F000
03E3F000
03F3E000
01F3E000
01F7E000
01FFC000
00FFC000
00FFC000
007F8000
003F8000
001F8000
001F0000
001F0000
003E0000
003E0000
007E0000
007C0000
007C0000
00FC0000
00780000
ENDCHAR
STARTCHAR z
ENCODING 122
SWIDTH 673 0
DWIDTH 30 0
BBX 21 32 5 -1
BITMAP
7FFFE0
FFFFE0
FFFFF0
FFFFE0
7FFFE0
000FE0
000FC0
001F80
001F80
003F00
003F00
007E00
007E00
00FC00
01FC00
01F800
03F000
03F000
07E000
07E000
0FC000
0FC000
1F8000
3F0000
3F0000
7E0000
7E0000
FFFFF8
FFFFF8
FFFFF8
FFFFF8
7FFFF8
ENDCHAR
STARTCHAR uni0237
ENCODING 567
SWIDTH 419 0
DWIDTH 18 0
BBX 11 34 1 -4
BITMAP
03E0
03E0
03E0
03E0
03E0
03E0
03E0
03E0
03E0
03E0
03E0
03E0
03E0
03E0
03E0
03E0
03E0
03E0
03E0
03E0
03E0
03E0
03E0
03E0
03E0
03E0
03E0
03E0
03E0
FFE0
FFE0
FFE0
FFC0
FF80
ENDCHAR
STARTCHAR .notdef
ENCODING -1
SWIDTH 500 0
DWIDTH 22 0
BBX 14 46 4 -7
BITMAP
FFFC
FFFC
FFFC
E01C
FCFC
FCFC
E01C
E01C
FFFC
E0FC
E4FC
E4FC
E01C
E01C
FFFC
E01C
FCFC
FCFC
E09C
E09C
FF9C
E01C
FFFC
E41C
E41C
E49C
E79C
E01C
E01C
FFFC
FFFC
FFFC
E01C
E79C
E79C
E01C
E01C
FFFC
E01C
FCFC
F1FC
E01C
E01C
FFFC
FFFC
FFFC
ENDCHAR
STARTCHAR dotlessi
ENCODING -1
SWIDTH 396 0
DWIDTH 17 0
BBX 5 30 6 -1
BITMAP
F8
F8
F8
F8
F8
F8
F8
F8
F8
F8
F8
F8
F8
F8
F8
F8
F8
F8
F8
F8
F8
F8
F8
F8
F8
F8
F8
F8
F8
F8
ENDCHAR
STARTCHAR uni0307
ENCODING -1
SWIDTH 0 0
DWIDTH 0 0
BBX 5 5 -11 34
BITMAP
F0
F8
F8
F8
F8
ENDCHAR
ENDFONT
